<?xml version="1.0" encoding="iso-8859-1"?>
<!-- Uploaded to: SVG Repo, www.svgrepo.com, Generator: SVG Repo Mixer Tools -->
<svg fill="#000000" height="800px" width="800px" version="1.1" id="Layer_1" xmlns="http://www.w3.org/2000/svg" xmlns:xlink="http://www.w3.org/1999/xlink" 
	 viewBox="0 0 512 512" xml:space="preserve">

<g>
	<g>
		<path d="M424.453,0H87.547C66.72,0,49.776,16.944,49.776,37.771v436.459C49.776,495.056,66.72,512,87.547,512h336.906
			c20.827,0,37.771-16.944,37.771-37.771V37.771C462.224,16.944,445.28,0,424.453,0z M70.175,37.771
			c0-9.579,7.793-17.372,17.372-17.372h336.906c9.579,0,17.372,7.793,17.372,17.372V88.6H231.522V45.764
			c0-5.632-4.566-10.199-10.199-10.199c-5.633,0-10.199,4.567-10.199,10.199V88.6H70.175V37.771z M441.826,474.229
			c-0.001,9.579-7.794,17.372-17.373,17.372H87.547c-9.579,0-17.372-7.793-17.372-17.372v-365.23h371.652V474.229z"/>
	</g>
</g>
<g>
	<g>
		<path d="M254.98,155.915c-83.796,0-151.968,68.172-151.968,151.968s68.172,151.968,151.968,151.968
			s151.968-68.173,151.968-151.968S338.776,155.915,254.98,155.915z M254.98,439.453c-72.548,0-131.57-59.022-131.57-131.57
			s59.022-131.57,131.57-131.57s131.57,59.022,131.57,131.57S327.528,439.453,254.98,439.453z"/>
	</g>
</g>
<g>
	<g>
		<path d="M334.534,30.465H257.02c-5.633,0-10.199,4.567-10.199,10.199v27.538c0,5.633,4.566,10.199,10.199,10.199h77.514
			c5.633,0,10.199-4.567,10.199-10.199V40.664C344.733,35.032,340.167,30.465,334.534,30.465z M324.335,58.003h-57.116v-7.139
			h57.116V58.003z"/>
	</g>
</g>
<g>
	<g>
		<path d="M106.072,30.465h-3.06c-5.633,0-10.199,4.567-10.199,10.199c0,5.632,4.566,10.199,10.199,10.199h3.06
			c5.633,0,10.199-4.567,10.199-10.199C116.271,35.032,111.705,30.465,106.072,30.465z"/>
	</g>
</g>
<g>
	<g>
		<path d="M142.789,30.465h-3.06c-5.633,0-10.199,4.567-10.199,10.199c0,5.632,4.566,10.199,10.199,10.199h3.06
			c5.633,0,10.199-4.567,10.199-10.199C152.988,35.032,148.422,30.465,142.789,30.465z"/>
	</g>
</g>
<g>
	<g>
		<path d="M179.506,30.465h-3.06c-5.633,0-10.199,4.567-10.199,10.199c0,5.632,4.566,10.199,10.199,10.199h3.06
			c5.633,0,10.199-4.567,10.199-10.199C189.705,35.032,185.139,30.465,179.506,30.465z"/>
	</g>
</g>
<g>
	<g>
		<path d="M106.072,60.043h-3.06c-5.633,0-10.199,4.567-10.199,10.199c0,5.632,4.566,10.199,10.199,10.199h3.06
			c5.633,0,10.199-4.567,10.199-10.199C116.271,64.61,111.705,60.043,106.072,60.043z"/>
	</g>
</g>
<g>
	<g>
		<path d="M142.789,60.043h-3.06c-5.633,0-10.199,4.567-10.199,10.199c0,5.632,4.566,10.199,10.199,10.199h3.06
			c5.633,0,10.199-4.567,10.199-10.199C152.988,64.61,148.422,60.043,142.789,60.043z"/>
	</g>
</g>
<g>
	<g>
		<path d="M179.506,60.043h-3.06c-5.633,0-10.199,4.567-10.199,10.199c0,5.632,4.566,10.199,10.199,10.199h3.06
			c5.633,0,10.199-4.567,10.199-10.199C189.705,64.61,185.139,60.043,179.506,60.043z"/>
	</g>
</g>
<g>
	<g>
		<path d="M254.98,195.692c-61.862,0-112.191,50.329-112.191,112.191s50.329,112.191,112.191,112.191
			s112.191-50.329,112.191-112.191S316.842,195.692,254.98,195.692z M254.98,399.676c-23.198,0-44.411-8.655-60.588-22.899
			l57.602-57.602c3.983-3.983,3.983-10.441,0-14.425c-3.983-3.982-10.441-3.982-14.425,0l-56.922,56.922
			c-3.006-4.142-5.673-8.543-7.964-13.164l37.493-37.493c3.983-3.983,3.983-10.441,0-14.425c-3.983-3.982-10.441-3.982-14.425,0
			l-30.53,30.53c-1.329-6.206-2.035-12.641-2.035-19.239c0-50.615,41.178-91.793,91.793-91.793s91.793,41.178,91.793,91.793
			S305.595,399.676,254.98,399.676z"/>
	</g>
</g>
<g>
	<g>
		<path d="M282.319,274.424c-3.983-3.982-10.441-3.982-14.424,0l-6.598,6.598c-3.983,3.983-3.983,10.441,0,14.425
			c1.992,1.991,4.602,2.987,7.212,2.987s5.221-0.996,7.212-2.987l6.598-6.598C286.302,284.866,286.302,278.408,282.319,274.424z"/>
	</g>
</g>

</svg>
